<svg width="188" height="149" viewBox="0 0 188 149" fill="none" xmlns="http://www.w3.org/2000/svg">
<!-- BODY -->
<path d="M82.3944 135.458C81.3651 135.002 80.5851 134.747 79.4291 134.721C78.3864 134.698 77.3197 135.125 76.4197 135.591C73.9651 136.862 72.7237 140.247 74.2597 142.655C74.7291 143.39 75.3638 143.969 76.1064 144.341C76.6971 144.974 77.4584 145.445 78.2998 145.625C79.5251 145.885 80.5904 145.674 81.7078 145.122L81.8957 145.001C82.7531 144.33 82.8584 144.255 82.2078 144.773C82.5931 144.534 82.9491 144.234 83.2851 143.929C84.4811 142.835 85.0918 141.599 85.2464 139.975C85.4198 138.158 83.9984 136.169 82.3944 135.458Z" fill="#F1AC56"/>
<path d="M108.903 135.01C107.203 133.252 104.819 132.432 102.441 132.183C99.4412 131.872 96.9799 132.726 95.1986 135.25C94.9866 135.551 94.8079 135.86 94.6492 136.174C93.3332 135.576 91.7626 135.488 90.3332 135.736C90.0199 135.791 89.7239 135.891 89.4426 136.02C87.4866 136.708 86.1612 138.866 86.3986 140.922C86.6586 143.178 88.0306 145.075 90.3439 145.588C92.3292 146.028 94.2332 145.52 95.7852 144.236L95.8172 144.203C96.8212 145.31 98.1759 146.143 99.7826 146.499C100.191 146.591 100.595 146.636 101 146.66C101.885 146.824 102.792 146.78 103.632 146.526C103.765 146.536 103.895 146.55 104.031 146.556C109.705 146.796 112.699 138.935 108.903 135.01Z" fill="#F1AC56"/>
<path d="M130.463 131.182C130.435 130.973 130.397 130.765 130.33 130.559C129.973 129.477 128.907 128.389 127.654 128.523C126.291 128.669 125.109 129.167 124.374 130.411C123.974 131.089 123.883 131.818 123.982 132.51C121.754 132.642 119.911 134.339 119.841 136.622C119.782 136.813 119.731 137.002 119.695 137.19C119.362 138.878 120.15 140.961 122.046 141.33C123.269 141.57 124.351 141.671 125.578 141.437C127.837 141.007 129.199 138.941 129.286 136.751C129.309 136.166 129.167 135.606 128.925 135.091C129.945 134.485 130.621 133.335 130.555 132.169L130.566 132.089C130.555 131.709 130.434 130.867 130.463 131.182Z" fill="#F1AC56"/>
<path d="M171.941 125.101C171.07 125.101 170.265 125.401 169.603 125.889L169.503 125.634C169.374 125.359 169.067 124.502 169.457 125.677C169.267 125.106 168.987 124.461 168.642 123.946C167.035 121.542 164.53 120.546 161.698 120.974C163.346 120.726 161.463 120.937 160.913 121.122C160.075 121.401 159.319 121.794 158.689 122.425C157.482 123.63 156.942 125.509 157.39 127.163L157.331 127.511C156.689 127.477 155.997 127.546 155.517 127.721C154.361 128.142 153.633 128.755 152.905 129.627C152.49 129.494 152.061 129.402 151.607 129.402C149.501 129.402 147.713 130.966 147.339 132.977C146.921 132.594 146.454 132.265 146.011 132.026C144.609 131.271 143.058 131.037 141.509 131.431C139.819 131.861 138.409 133.589 138.475 135.366L138.422 135.433C137.835 136.261 137.874 137.422 138.079 138.354C138.306 139.393 139.193 140.307 140.069 140.859C141.085 141.501 142.421 141.747 143.606 141.627C144.974 141.491 146.617 141.145 147.577 140.051C148.167 139.378 148.646 138.706 148.859 137.817C148.914 137.586 148.931 137.37 148.951 137.153C149.693 137.735 150.609 138.101 151.607 138.101C152.287 138.101 152.925 137.923 153.503 137.635C153.734 137.802 153.978 137.945 154.237 138.065C154.65 138.751 155.438 139.469 156.254 139.601C157.429 139.794 158.391 140.005 159.593 139.765C161.362 139.411 162.478 137.698 163.058 136.13C163.279 135.533 163.351 134.937 163.315 134.362C164.15 134.359 164.974 134.255 165.671 134.099C166.957 133.811 168.203 132.919 169.05 131.79C169.782 132.57 170.807 133.069 171.941 133.069C174.113 133.069 175.925 131.257 175.925 129.085C175.925 126.913 174.113 125.101 171.941 125.101Z" fill="#F1AC56"/>
<path d="M185.755 118.627C185.029 117.302 183.874 116.565 182.51 116.029C181.405 115.593 179.901 115.445 178.779 115.873C176.937 116.573 175.571 117.999 175.571 120.085C175.571 120.925 175.801 121.651 176.186 122.271C176.271 123.255 176.609 123.887 177.21 124.663C177.603 125.171 178.239 125.542 178.825 125.805C180.055 126.362 181.446 126.907 182.803 126.387C184.462 125.755 185.475 124.682 186.086 123.031C186.623 121.579 186.499 119.982 185.755 118.627Z" fill="#F1AC56"/>
<path d="M93.8355 146.259C105.761 146.259 143.614 144.185 152.429 138.481C150.873 99.5912 147.286 58.1553 141.54 40.7379C133.817 17.3286 115.85 2.10864 93.8355 2.10864C71.8208 2.10864 53.8542 17.3286 46.1315 40.7379C40.3848 58.1553 36.7982 99.5912 35.2422 138.481C44.0569 144.185 81.9102 146.259 93.8355 146.259Z" fill="#CD5C29"/>
<path d="M93.8355 121.991C70.4115 121.991 49.8635 109.465 38.2409 90.6299C36.8849 105.754 35.8875 122.333 35.2422 138.481C44.0569 144.185 81.9102 146.259 93.8355 146.259C105.761 146.259 143.614 144.185 152.429 138.481C151.784 122.333 150.786 105.754 149.43 90.6299C137.808 109.465 117.26 121.991 93.8355 121.991Z" fill="#BA4927"/>
<path d="M42.5755 139.849C44.0422 103.173 47.4262 64.0953 52.8449 47.6673C60.1289 25.5913 77.0742 11.2353 97.8355 11.2353C118.598 11.2353 135.542 25.5913 142.826 47.6673C143.819 50.6793 143.041 45.286 141.54 40.738C133.817 17.3287 115.85 2.10872 93.8355 2.10872C71.8208 2.10872 53.8542 17.3287 46.1315 40.738C40.3848 58.1553 36.7982 99.5913 35.2422 138.481C38.3342 140.482 44.6129 141.167 42.5755 139.849Z" fill="#E6894A"/>
<path d="M37.2904 137.345C46.9624 142.194 81.2104 144.259 93.8358 144.259C106.461 144.259 140.709 142.194 150.381 137.345C148.521 91.9686 144.516 56.1406 139.641 41.3646C132.06 18.3846 114.508 4.10864 93.8358 4.10864C73.1638 4.10864 55.6118 18.3846 48.0304 41.3646C43.1558 56.1406 39.1504 91.9686 37.2904 137.345ZM93.8358 148.259C86.5064 148.259 44.3637 146.766 34.1557 140.159C33.5624 139.775 33.2158 139.106 33.2438 138.401C34.1331 116.166 36.9838 62.0806 44.2318 40.1112C52.3718 15.4366 71.3784 0.108643 93.8358 0.108643C116.293 0.108643 135.3 15.4366 143.44 40.1112C150.688 62.0806 153.538 116.166 154.428 138.401C154.456 139.106 154.109 139.775 153.516 140.159C143.308 146.766 101.165 148.259 93.8358 148.259Z" fill="#100F0D"/>
<path d="M102.266 85.6046L102.279 85.6579C102.279 89.8979 98.5058 97.0712 93.8391 97.0712C89.1724 97.0712 85.3857 89.8979 85.3857 85.6579L85.4124 85.6046C87.9591 86.4192 90.8258 86.8845 93.8391 86.8845C96.8658 86.8845 99.7191 86.4192 102.266 85.6046Z" fill="#F8F8F8"/>
<path d="M93.8392 61.0994C104.506 61.0994 113.173 66.8727 113.173 73.9914C113.173 79.0994 108.719 83.5114 102.266 85.6048C99.7192 86.4194 96.8659 86.8847 93.8392 86.8847C90.8259 86.8847 87.9592 86.4194 85.4125 85.6048V85.5927C78.9592 83.5114 74.5059 79.0994 74.5059 73.9914C74.5059 66.8727 83.1592 61.0994 93.8392 61.0994Z" fill="#FDEAB3"/>
<path d="M102.613 69.2912C102.613 72.4218 98.6834 76.4365 93.8354 76.4365C88.9874 76.4365 85.0581 72.4218 85.0581 69.2912C85.0581 66.1618 88.9874 65.1031 93.8354 65.1031C98.6834 65.1031 102.613 66.1618 102.613 69.2912Z" fill="#100F0D"/>
<path d="M93.5853 68.3087C93.7066 69.1274 92.6013 69.974 91.1159 70.198C89.6293 70.422 88.3226 69.9394 88.1986 69.1207C88.0772 68.302 89.1812 67.4554 90.6679 67.2314C92.1532 67.0074 93.4613 67.4887 93.5853 68.3087Z" fill="white"/>
<path d="M93.8356 85.5473C83.9103 85.5473 75.8356 80.3646 75.8356 73.9913C75.8356 67.6193 83.9103 62.4353 93.8356 62.4353C103.761 62.4353 111.836 67.6193 111.836 73.9913C111.836 80.3646 103.761 85.5473 93.8356 85.5473ZM94.8356 95.574V88.1793C96.8996 88.1113 98.8823 87.8367 100.746 87.3793C100.053 90.698 97.5996 94.7433 94.8356 95.574ZM86.9249 87.3793C88.7889 87.8367 90.7716 88.1113 92.8356 88.1793V95.574C90.0716 94.7433 87.6183 90.698 86.9249 87.3793ZM114.502 73.9913C114.502 66.15 105.232 59.7687 93.8356 59.7687C82.4396 59.7687 73.1689 66.15 73.1689 73.9913C73.1689 79.414 77.6023 84.134 84.1049 86.5327C84.5649 91.1313 88.4463 98.4086 93.8356 98.4086C99.2249 98.4086 103.106 91.1313 103.566 86.5327C110.069 84.134 114.502 79.414 114.502 73.9913Z" fill="#100F0D"/>
<path d="M80.9302 75.2338H70.4089C70.0395 75.2338 69.7422 74.9352 69.7422 74.5672C69.7422 74.1992 70.0395 73.9005 70.4089 73.9005H80.9302C81.2995 73.9005 81.5968 74.1992 81.5968 74.5672C81.5968 74.9352 81.2995 75.2338 80.9302 75.2338Z" fill="#100F0D"/>
<path d="M71.0432 83.2792C70.8045 83.2792 70.5725 83.1498 70.4538 82.9232C70.2818 82.5978 70.4085 82.1938 70.7338 82.0232L80.6205 76.8272C80.9445 76.6566 81.3498 76.7819 81.5205 77.1072C81.6925 77.4339 81.5658 77.8366 81.2405 78.0072L71.3538 83.2032L71.0432 83.2792Z" fill="#100F0D"/>
<path d="M80.9298 72.7021L80.6205 72.6247L70.7338 67.4301C70.4085 67.2594 70.2818 66.8554 70.4538 66.5301C70.6245 66.2047 71.0298 66.0807 71.3538 66.2501L81.2405 71.4447C81.5658 71.6154 81.6925 72.0194 81.5205 72.3447C81.4018 72.5714 81.1698 72.7021 80.9298 72.7021Z" fill="#100F0D"/>
<path d="M117.262 75.2338H106.741C106.372 75.2338 106.074 74.9352 106.074 74.5672C106.074 74.1992 106.372 73.9005 106.741 73.9005H117.262C117.632 73.9005 117.929 74.1992 117.929 74.5672C117.929 74.9352 117.632 75.2338 117.262 75.2338Z" fill="#100F0D"/>
<path d="M116.627 83.2792L116.317 83.2032L106.43 78.0072C106.105 77.8366 105.978 77.4339 106.15 77.1072C106.322 76.7819 106.726 76.6566 107.05 76.8272L116.937 82.0232C117.262 82.1938 117.389 82.5978 117.217 82.9232C117.098 83.1498 116.866 83.2792 116.627 83.2792Z" fill="#100F0D"/>
<path d="M106.741 72.7021C106.501 72.7021 106.269 72.5714 106.15 72.3447C105.978 72.0194 106.105 71.6154 106.43 71.4447L116.317 66.2501C116.641 66.0807 117.046 66.2047 117.217 66.5301C117.389 66.8554 117.262 67.2594 116.937 67.4301L107.05 72.6247L106.741 72.7021Z" fill="#100F0D"/>
<path d="M70.0859 59.9915C70.0859 63.9208 66.9033 67.1035 62.974 67.1035C59.0473 67.1035 55.8633 63.9208 55.8633 59.9915C55.8633 56.0648 59.0473 52.8808 62.974 52.8808C66.9033 52.8808 70.0859 56.0648 70.0859 59.9915Z" fill="#100F0D"/>
<path d="M62.9743 58.1031C62.9743 59.2685 62.0289 60.2138 60.8636 60.2138C59.6969 60.2138 58.7529 59.2685 58.7529 58.1031C58.7529 56.9378 59.6969 55.9925 60.8636 55.9925C62.0289 55.9925 62.9743 56.9378 62.9743 58.1031Z" fill="white"/>
<path d="M50.7529 44.8247C58.3596 45.95 72.3343 48.6873 81.2703 52.2726C84.3916 45.194 85.0156 37.066 82.4969 29.4607C82.5676 33.7327 82.0543 36.9793 81.2156 39.398C69.753 33.9406 58.8836 31.0553 55.0396 30.2407C53.1676 33.3673 50.9849 39.9567 50.7529 44.8247Z" fill="#100F0D"/>
<path d="M131.806 59.9915C131.806 63.9208 128.622 67.1035 124.694 67.1035C120.766 67.1035 117.583 63.9208 117.583 59.9915C117.583 56.0648 120.766 52.8808 124.694 52.8808C128.622 52.8808 131.806 56.0648 131.806 59.9915Z" fill="#100F0D"/>
<path d="M124.693 58.1031C124.693 59.2685 123.748 60.2138 122.582 60.2138C121.417 60.2138 120.472 59.2685 120.472 58.1031C120.472 56.9378 121.417 55.9925 122.582 55.9925C123.748 55.9925 124.693 56.9378 124.693 58.1031Z" fill="white"/>
<path d="M136.92 44.8247C129.312 45.95 115.337 48.6873 106.401 52.2726C103.28 45.194 102.656 37.066 105.174 29.4607C105.104 33.7327 105.617 36.9793 106.456 39.398C117.92 33.9406 128.788 31.0553 132.632 30.2407C134.504 33.3673 136.686 39.9567 136.92 44.8247Z" fill="#100F0D"/>
<!-- LEFT HANDS -->
<path class="left"  d="M185.755 118.627C185.029 117.302 183.874 116.565 182.51 116.029C181.405 115.593 179.901 115.445 178.779 115.873C176.937 116.573 175.571 117.999 175.571 120.085C175.571 120.925 175.801 121.651 176.186 122.271C176.271 123.255 176.609 123.887 177.21 124.663C177.603 125.171 178.239 125.542 178.825 125.805C180.055 126.362 181.446 126.907 182.803 126.387C184.462 125.755 185.475 124.682 186.086 123.031C186.623 121.579 186.499 119.982 185.755 118.627Z" fill="#F1AC56"/>
<path class="left" d="M37.4465 138.032L37.5278 138.231C31.6998 140.658 25.9145 142.071 20.9932 142.486C23.6598 134.819 30.8865 126.152 33.2198 124.152L34.2479 123.699C35.9932 127.592 37.1532 132.338 37.4465 138.032Z" fill="#FDEAB3"/>
<path class="left" d="M34.2476 123.699L33.2196 124.153C24.2196 130.486 17.5529 132.699 9.88623 134.033C12.2196 127.819 17.4462 119.486 25.2196 113.926L25.8862 112.979C29.1942 115.458 32.1529 118.951 34.2476 123.699Z" fill="#FDEAB3"/>
<path class="left" d="M13.6195 108.192C17.6595 108.604 22.0062 110.099 25.8862 112.979L25.2195 113.926C15.8862 119.259 8.3395 121.819 2.32617 124.486C4.19417 118.231 7.39283 112.646 13.6195 108.192Z" fill="#FDEAB3"/>
<path class="left" d="M55.6591 107.473C60.3791 113.366 60.5658 124.325 48.3258 132.486C44.8605 134.806 41.1791 136.711 37.5271 138.231L37.4458 138.033C37.1525 132.338 35.9925 127.593 34.2472 123.699C32.1525 118.951 29.1938 115.458 25.8858 112.979C22.0058 110.099 17.6591 108.605 13.6191 108.193C16.7125 105.979 20.5391 104.058 25.3258 102.473C36.4458 98.8061 50.3258 100.806 55.6591 107.473Z" fill="#CD5C29"/>
<path class="left" d="M56.4901 118.181C55.9808 121.466 53.9594 126.323 47.2234 130.815C44.5168 132.619 41.5955 134.219 38.5915 135.586C36.9315 118.745 27.5155 110.386 18.1661 107.725C20.3888 106.497 22.9608 105.367 25.9595 104.378C29.3581 103.255 33.1581 102.662 36.9501 102.662C44.5381 102.662 51.1115 104.987 54.1048 108.726C56.1555 111.291 57.0261 114.737 56.4901 118.181ZM33.8554 126.301C34.9314 129.301 35.6715 132.758 35.9888 136.706C32.0461 138.287 28.0168 139.443 24.1688 140.071C26.9808 134.23 31.6968 128.479 33.8554 126.301ZM13.2555 131.322C15.8608 126.065 20.2941 119.902 26.3848 115.55L26.6488 115.27C28.7648 117.15 30.6568 119.525 32.1901 122.451L32.0715 122.51C24.7341 127.673 19.1328 129.962 13.2555 131.322ZM6.7368 120.454C6.41147 120.587 6.09014 120.718 5.7728 120.85C7.43814 117.079 10.1261 113.139 14.9648 109.722C17.7635 110.179 20.5808 111.169 23.2128 112.75C16.9355 116.253 11.5275 118.486 6.7368 120.454ZM36.9501 98.662C32.7381 98.662 28.5035 99.3247 24.7061 100.578C11.4035 104.969 3.91281 112.163 0.416814 123.909C0.194147 124.655 0.426143 125.466 1.01281 125.982C1.59948 126.495 2.43281 126.623 3.14481 126.307C4.73681 125.599 6.43945 124.899 8.25545 124.154C10.3088 123.31 12.4701 122.422 14.7661 121.409C11.6035 125.533 9.33548 129.821 8.01815 133.33C7.76481 134.002 7.89281 134.758 8.35015 135.31C8.80748 135.862 9.5208 136.134 10.2328 136.003C14.9861 135.177 19.4995 133.998 24.4941 131.637C22.3488 134.799 20.3035 138.393 19.1101 141.822C18.8875 142.461 19.0048 143.169 19.4194 143.705C19.8008 144.195 20.3848 144.479 20.9995 144.479L21.1661 144.473C30.3128 143.71 40.8835 139.849 49.4421 134.143C57.3875 128.846 59.8101 122.873 60.4435 118.794C61.1488 114.246 59.9768 109.665 57.2275 106.227C53.4381 101.49 45.8581 98.662 36.9501 98.662Z" fill="#100F0D"/>

<!-- RIGHT HAND -->
<path d="M162.313 102.473C167.1 104.058 170.94 105.979 174.033 108.193C169.993 108.593 165.634 110.086 161.753 112.991C158.446 115.473 155.486 118.966 153.406 123.711C151.66 127.605 150.513 132.338 150.206 138.033L150.126 138.246C146.46 136.725 142.78 134.806 139.313 132.486C127.086 124.325 127.273 113.366 131.98 107.473C137.313 100.806 151.206 98.806 162.313 102.473Z" fill="#CD5C29"/>
<path d="M154.419 124.152C156.753 126.152 163.979 134.819 166.646 142.486C161.739 142.071 155.953 140.658 150.126 138.246L150.206 138.032C150.513 132.338 151.659 127.604 153.406 123.711L154.419 124.152Z" fill="#FDEAB3"/>
<path d="M162.42 113.926C170.194 119.486 175.42 127.819 177.753 134.033C170.086 132.699 163.42 130.486 154.42 124.153L153.406 123.711C155.486 118.966 158.446 115.473 161.753 112.991L162.42 113.926Z" fill="#FDEAB3"/>
<path d="M174.033 108.192C180.26 112.646 183.46 118.231 185.313 124.486C179.313 121.819 171.753 119.259 162.42 113.926L161.753 112.991C165.634 110.086 169.993 108.592 174.033 108.192Z" fill="#FDEAB3"/>
<path d="M180.909 120.454C176.118 118.486 170.709 116.253 164.431 112.75C167.065 111.169 169.881 110.179 172.681 109.722C177.519 113.139 180.206 117.079 181.871 120.85C181.554 120.718 181.234 120.587 180.909 120.454ZM174.389 131.322C168.513 129.962 162.911 127.673 155.574 122.51L155.453 122.455C156.985 119.526 158.879 117.151 160.995 115.27L161.259 115.55C167.351 119.902 171.785 126.065 174.389 131.322ZM163.475 140.071C159.629 139.443 155.598 138.287 151.655 136.706C151.974 132.758 152.713 129.301 153.79 126.301C155.947 128.479 160.663 134.23 163.475 140.071ZM131.154 118.181C130.619 114.737 131.489 111.291 133.539 108.727C136.533 104.987 143.106 102.662 150.695 102.662C154.486 102.662 158.287 103.255 161.686 104.378C164.685 105.367 167.255 106.497 169.478 107.725C160.13 110.386 150.713 118.745 149.053 135.586C146.049 134.219 143.129 132.619 140.421 130.815C133.686 126.323 131.663 121.466 131.154 118.181ZM187.137 123.601C183.601 112.038 176.126 104.931 162.938 100.578C159.141 99.3246 154.907 98.6619 150.695 98.6619C141.787 98.6619 134.206 101.49 130.418 106.227C127.667 109.665 126.495 114.246 127.201 118.794C127.834 122.873 130.257 128.846 138.202 134.143C146.761 139.849 157.331 143.71 166.478 144.473L166.645 144.479H166.659C167.754 144.513 168.673 143.589 168.671 142.479C168.671 142.131 168.583 141.803 168.426 141.518C167.221 138.181 165.233 134.706 163.15 131.637C168.145 133.998 172.658 135.177 177.413 136.003C178.125 136.134 178.837 135.862 179.295 135.31C179.753 134.758 179.879 134.002 179.627 133.33C178.309 129.821 176.041 125.533 172.878 121.409C175.175 122.422 177.335 123.31 179.389 124.154C181.205 124.899 182.909 125.599 184.499 126.307C184.759 126.423 185.037 126.479 185.311 126.479H185.338C186.443 126.479 187.338 125.583 187.338 124.479C187.338 124.163 187.266 123.866 187.137 123.601Z" fill="#100F0D"/>
</svg>

