<svg width="267" height="20" viewBox="0 0 267 20" fill="none" xmlns="http://www.w3.org/2000/svg">
<path d="M7.28366 15.1744C6.30168 15.1744 5.37785 15 4.51216 14.6511C3.65939 14.2894 2.91645 13.7919 2.28333 13.1588C1.65021 12.5257 1.15276 11.7827 0.790982 10.93C0.442122 10.0643 0.267692 9.14044 0.267692 8.15846C0.267692 7.16356 0.442122 6.23973 0.790982 5.38696C1.15276 4.53419 1.65021 3.79771 2.28333 3.17751C2.91645 2.54439 3.65939 2.0534 4.51216 1.70454C5.36493 1.34276 6.28876 1.16187 7.28366 1.16187C8.27856 1.16187 9.20239 1.34276 10.0552 1.70454C10.9079 2.0534 11.6444 2.54439 12.2646 3.17751C12.8977 3.79771 13.3887 4.53419 13.7376 5.38696C14.0994 6.23973 14.2803 7.16356 14.2803 8.15846C14.2803 9.14044 14.0994 10.0643 13.7376 10.93C13.3887 11.7827 12.8977 12.5257 12.2646 13.1588C11.6444 13.7919 10.9079 14.2894 10.0552 14.6511C9.20239 15 8.27856 15.1744 7.28366 15.1744ZM7.57438 12.3448C6.30814 12.3448 5.30679 11.9636 4.5703 11.2013C3.83382 10.4261 3.46558 9.39885 3.46558 8.1197C3.46558 6.84054 3.83382 5.83272 4.5703 5.09624C5.30679 4.35976 6.30814 3.99152 7.57438 3.99152C8.09121 3.99152 8.60158 4.08196 9.10549 4.26285C9.62232 4.43082 10.0422 4.66986 10.3653 4.97995L9.82259 6.18158C9.51249 5.89733 9.17009 5.6906 8.79539 5.56139C8.42069 5.41926 8.05245 5.3482 7.69067 5.3482C6.9025 5.3482 6.2823 5.59369 5.83008 6.08468C5.39077 6.57567 5.17112 7.26047 5.17112 8.13908C5.17112 9.00477 5.39077 9.69603 5.83008 10.2129C6.2823 10.7168 6.9025 10.9687 7.69067 10.9687C8.05245 10.9687 8.42069 10.9041 8.79539 10.7749C9.17009 10.6328 9.51249 10.4196 9.82259 10.1353L10.3653 11.3563C10.0422 11.6535 9.62232 11.8926 9.10549 12.0734C8.58866 12.2543 8.07829 12.3448 7.57438 12.3448ZM7.28366 14.2441C8.14935 14.2441 8.94398 14.0955 9.66754 13.7984C10.404 13.4883 11.0436 13.0554 11.5863 12.4998C12.1289 11.9442 12.5489 11.2982 12.846 10.5617C13.1561 9.82524 13.3112 9.02415 13.3112 8.15846C13.3112 7.29277 13.1561 6.49168 12.846 5.7552C12.5489 5.01872 12.1289 4.37914 11.5863 3.83647C11.0436 3.28087 10.404 2.85449 9.66754 2.55731C8.94398 2.24721 8.14935 2.09217 7.28366 2.09217C6.41797 2.09217 5.61688 2.24721 4.8804 2.55731C4.14392 2.85449 3.50434 3.28087 2.96167 3.83647C2.419 4.37914 1.99261 5.01872 1.68251 5.7552C1.38534 6.49168 1.23675 7.29277 1.23675 8.15846C1.23675 9.02415 1.38534 9.82524 1.68251 10.5617C1.99261 11.2982 2.419 11.9442 2.96167 12.4998C3.50434 13.0554 4.14392 13.4883 4.8804 13.7984C5.61688 14.0955 6.41797 14.2441 7.28366 14.2441ZM21.9558 15V13.5077L26.646 8.60423C27.2533 7.97111 27.7055 7.37675 28.0027 6.82116C28.2999 6.26557 28.4485 5.6906 28.4485 5.09624C28.4485 4.35976 28.2159 3.80417 27.7508 3.42946C27.2985 3.05476 26.6396 2.86741 25.7739 2.86741C25.0891 2.86741 24.443 2.99016 23.8358 3.23565C23.2414 3.48115 22.6664 3.85585 22.1109 4.35976L21.4131 2.82865C21.9558 2.32474 22.6277 1.9242 23.4288 1.62702C24.2428 1.31692 25.102 1.16187 26.0065 1.16187C27.4277 1.16187 28.5195 1.48489 29.2819 2.13093C30.0571 2.77697 30.4447 3.7008 30.4447 4.90243C30.4447 5.7552 30.238 6.57567 29.8245 7.36383C29.4111 8.13908 28.7909 8.94017 27.964 9.76709L23.9133 13.8565V13.3138H31.0068V15H21.9558ZM37.7826 15.1744C36.2063 15.1744 34.9917 14.5736 34.1389 13.372C33.2991 12.1574 32.8792 10.4196 32.8792 8.15846C32.8792 5.85857 33.2991 4.12072 34.1389 2.94494C34.9917 1.75623 36.2063 1.16187 37.7826 1.16187C39.3719 1.16187 40.5864 1.75623 41.4263 2.94494C42.2661 4.12072 42.686 5.85211 42.686 8.13908C42.686 10.4131 42.2596 12.1574 41.4069 13.372C40.567 14.5736 39.3589 15.1744 37.7826 15.1744ZM37.7826 13.4883C38.7775 13.4883 39.514 13.0554 39.9921 12.1897C40.483 11.324 40.7285 9.97383 40.7285 8.13908C40.7285 6.29141 40.483 4.94765 39.9921 4.1078C39.514 3.25503 38.7775 2.82865 37.7826 2.82865C36.8006 2.82865 36.0641 3.25503 35.5732 4.1078C35.0822 4.94765 34.8367 6.28495 34.8367 8.1197C34.8367 9.96737 35.0822 11.324 35.5732 12.1897C36.0771 13.0554 36.8135 13.4883 37.7826 13.4883ZM45.198 15V13.5077L49.8882 8.60423C50.4955 7.97111 50.9477 7.37675 51.2449 6.82116C51.5421 6.26557 51.6907 5.6906 51.6907 5.09624C51.6907 4.35976 51.4581 3.80417 50.9929 3.42946C50.5407 3.05476 49.8818 2.86741 49.0161 2.86741C48.3313 2.86741 47.6852 2.99016 47.078 3.23565C46.4836 3.48115 45.9086 3.85585 45.353 4.35976L44.6553 2.82865C45.198 2.32474 45.8699 1.9242 46.671 1.62702C47.485 1.31692 48.3442 1.16187 49.2486 1.16187C50.6699 1.16187 51.7617 1.48489 52.5241 2.13093C53.2993 2.77697 53.6869 3.7008 53.6869 4.90243C53.6869 5.7552 53.4802 6.57567 53.0667 7.36383C52.6533 8.13908 52.0331 8.94017 51.2061 9.76709L47.1555 13.8565V13.3138H54.249V15H45.198ZM60.8891 15.1744C59.9588 15.1744 59.0673 15.0388 58.2145 14.7674C57.3618 14.4832 56.6511 14.0826 56.0826 13.5658L56.7803 12.0347C57.4134 12.5257 58.0595 12.8875 58.7184 13.12C59.3774 13.3526 60.0816 13.4689 60.831 13.4689C61.7871 13.4689 62.5107 13.2686 63.0017 12.8681C63.5056 12.4675 63.7575 11.8926 63.7575 11.1432C63.7575 10.4067 63.5056 9.85108 63.0017 9.47638C62.5107 9.08875 61.7807 8.89494 60.8116 8.89494H58.6991V7.26693H60.6565C61.4835 7.26693 62.1424 7.0602 62.6334 6.64673C63.1244 6.22035 63.3699 5.64537 63.3699 4.92181C63.3699 4.26285 63.1438 3.75894 62.6916 3.41008C62.2393 3.0483 61.5933 2.86741 60.7535 2.86741C59.3322 2.86741 58.0853 3.36486 57.0129 4.35976L56.3346 2.82865C56.8643 2.2989 57.5362 1.89189 58.3502 1.60764C59.1642 1.31046 60.017 1.16187 60.9085 1.16187C62.2781 1.16187 63.357 1.47843 64.1452 2.11155C64.9333 2.73174 65.3274 3.59743 65.3274 4.70862C65.3274 5.54847 65.0884 6.26557 64.6103 6.85992C64.1452 7.45428 63.5056 7.84836 62.6916 8.04217V7.82898C63.6606 7.98403 64.4036 8.37165 64.9204 8.99185C65.4501 9.59912 65.715 10.3614 65.715 11.2788C65.715 12.4934 65.2822 13.4495 64.4165 14.1472C63.5637 14.832 62.3879 15.1744 60.8891 15.1744ZM73.3553 10.4648V8.89494H79.0339V10.4648H73.3553ZM87.1589 15V1.3363H92.9345C94.3945 1.3363 95.5251 1.68516 96.3262 2.38288C97.1273 3.06768 97.5278 4.03028 97.5278 5.27067C97.5278 6.08468 97.3469 6.7824 96.9852 7.36383C96.6234 7.94527 96.113 8.39103 95.4541 8.70113C94.7951 8.99831 94.0198 9.1469 93.1283 9.1469L93.4384 8.8368H93.9617C94.4915 8.8368 94.9631 8.97247 95.3765 9.2438C95.8029 9.51514 96.1518 9.94798 96.4231 10.5423L98.3806 15H96.1712L94.233 10.523C94.0392 9.99321 93.7356 9.65081 93.3221 9.49576C92.9216 9.34071 92.4241 9.26318 91.8298 9.26318H89.1746V15H87.1589ZM89.1746 7.73207H92.605C93.5741 7.73207 94.3041 7.52534 94.7951 7.11188C95.299 6.69841 95.551 6.10406 95.551 5.32881C95.551 4.54065 95.299 3.94629 94.7951 3.54575C94.3041 3.14521 93.5741 2.94494 92.605 2.94494H89.1746V7.73207ZM104.457 15.1744C103.488 15.1744 102.649 14.9742 101.938 14.5736C101.227 14.1602 100.678 13.5787 100.29 12.8293C99.9029 12.067 99.7091 11.1625 99.7091 10.116C99.7091 9.06937 99.9029 8.17138 100.29 7.42198C100.678 6.65965 101.227 6.07822 101.938 5.67767C102.649 5.26421 103.488 5.05748 104.457 5.05748C105.426 5.05748 106.266 5.26421 106.977 5.67767C107.701 6.07822 108.256 6.65965 108.644 7.42198C109.044 8.17138 109.245 9.06937 109.245 10.116C109.245 11.1625 109.044 12.067 108.644 12.8293C108.256 13.5787 107.701 14.1602 106.977 14.5736C106.266 14.9742 105.426 15.1744 104.457 15.1744ZM104.457 13.6433C105.31 13.6433 105.989 13.3461 106.492 12.7518C106.996 12.1574 107.248 11.2788 107.248 10.116C107.248 8.95309 106.996 8.08094 106.492 7.4995C105.989 6.90515 105.31 6.60797 104.457 6.60797C103.618 6.60797 102.946 6.90515 102.442 7.4995C101.938 8.08094 101.686 8.95309 101.686 10.116C101.686 11.2788 101.931 12.1574 102.422 12.7518C102.926 13.3461 103.605 13.6433 104.457 13.6433ZM115.816 15.1744C114.834 15.1744 113.975 14.9742 113.238 14.5736C112.515 14.1602 111.953 13.5723 111.552 12.8099C111.164 12.0347 110.971 11.1173 110.971 10.0578C110.971 9.01123 111.171 8.11324 111.571 7.36383C111.972 6.61443 112.534 6.04592 113.258 5.65829C113.981 5.25775 114.834 5.05748 115.816 5.05748C116.449 5.05748 117.063 5.16731 117.657 5.38696C118.251 5.59369 118.742 5.89087 119.13 6.27849L118.49 7.65455C118.129 7.30569 117.722 7.04728 117.269 6.87931C116.817 6.69841 116.378 6.60797 115.952 6.60797C115.021 6.60797 114.291 6.90515 113.761 7.4995C113.232 8.09386 112.967 8.95309 112.967 10.0772C112.967 11.2142 113.232 12.0864 113.761 12.6936C114.291 13.3009 115.021 13.6046 115.952 13.6046C116.365 13.6046 116.798 13.527 117.25 13.372C117.702 13.204 118.116 12.9391 118.49 12.5774L119.13 13.9534C118.73 14.341 118.226 14.6447 117.618 14.8643C117.024 15.0711 116.423 15.1744 115.816 15.1744ZM121.204 15V0.735486H123.162V9.49576H123.201L127.464 5.23191H129.887L124.732 10.3679L124.751 9.49576L130.313 15H127.833L123.201 10.523H123.162V15H121.204ZM135.827 15.1744C134.251 15.1744 133.01 14.7287 132.106 13.8371C131.201 12.9456 130.749 11.7117 130.749 10.1353C130.749 9.1146 130.943 8.22306 131.331 7.46074C131.731 6.69841 132.28 6.11052 132.978 5.69706C133.689 5.27067 134.509 5.05748 135.439 5.05748C136.357 5.05748 137.126 5.25129 137.746 5.63891C138.366 6.02654 138.838 6.57567 139.161 7.28631C139.484 7.98403 139.645 8.81096 139.645 9.76709V10.3873H132.28V9.26318H138.308L137.978 9.51514C137.978 8.54608 137.759 7.79668 137.319 7.26693C136.893 6.72426 136.273 6.45292 135.459 6.45292C134.554 6.45292 133.857 6.76948 133.366 7.4026C132.875 8.02279 132.629 8.88202 132.629 9.98029V10.1741C132.629 11.324 132.907 12.1897 133.463 12.7712C134.031 13.3526 134.832 13.6433 135.866 13.6433C136.434 13.6433 136.964 13.5658 137.455 13.4107C137.959 13.2428 138.437 12.9714 138.889 12.5967L139.529 13.934C139.077 14.3346 138.528 14.6447 137.881 14.8643C137.235 15.0711 136.551 15.1744 135.827 15.1744ZM145.671 15.1744C144.612 15.1744 143.811 14.8902 143.268 14.3217C142.725 13.7402 142.454 12.8745 142.454 11.7246V6.74364H140.555V5.23191H142.454V2.65422L144.411 2.13093V5.23191H147.125V6.74364H144.411V11.5502C144.411 12.2737 144.541 12.7906 144.799 13.1006C145.057 13.4107 145.432 13.5658 145.923 13.5658C146.169 13.5658 146.382 13.5464 146.563 13.5077C146.756 13.456 146.931 13.3978 147.086 13.3332V14.9225C146.892 15 146.666 15.0581 146.408 15.0969C146.149 15.1486 145.904 15.1744 145.671 15.1744ZM152.266 15.1744C151.452 15.1744 150.703 15.0711 150.018 14.8643C149.333 14.6576 148.765 14.3669 148.312 13.9922L148.913 12.6549C149.391 13.0167 149.921 13.288 150.503 13.4689C151.084 13.6498 151.678 13.7402 152.286 13.7402C152.996 13.7402 153.532 13.6175 153.894 13.372C154.256 13.1136 154.437 12.7647 154.437 12.3254C154.437 11.9895 154.321 11.7181 154.088 11.5114C153.868 11.3047 153.5 11.1496 152.983 11.0462L151.123 10.678C150.296 10.4971 149.669 10.187 149.243 9.74771C148.816 9.30841 148.603 8.74635 148.603 8.06155C148.603 7.48012 148.758 6.96329 149.068 6.51106C149.391 6.05884 149.844 5.70352 150.425 5.4451C151.019 5.18669 151.711 5.05748 152.499 5.05748C153.222 5.05748 153.894 5.16085 154.514 5.36758C155.135 5.57431 155.651 5.87149 156.065 6.25911L155.445 7.55765C155.044 7.22171 154.592 6.96329 154.088 6.7824C153.584 6.58859 153.074 6.49168 152.557 6.49168C151.833 6.49168 151.297 6.62735 150.948 6.89869C150.599 7.17002 150.425 7.52534 150.425 7.96465C150.425 8.30059 150.528 8.57838 150.735 8.79804C150.955 9.00477 151.297 9.16628 151.762 9.28257L153.623 9.65081C154.501 9.8317 155.16 10.1289 155.6 10.5423C156.039 10.9558 156.259 11.5114 156.259 12.2091C156.259 12.8164 156.091 13.3461 155.755 13.7984C155.419 14.2506 154.954 14.593 154.359 14.8256C153.765 15.0581 153.067 15.1744 152.266 15.1744ZM163.082 15.1744C161.505 15.1744 160.265 14.7287 159.361 13.8371C158.456 12.9456 158.004 11.7117 158.004 10.1353C158.004 9.1146 158.198 8.22306 158.585 7.46074C158.986 6.69841 159.535 6.11052 160.233 5.69706C160.943 5.27067 161.764 5.05748 162.694 5.05748C163.612 5.05748 164.38 5.25129 165.001 5.63891C165.621 6.02654 166.092 6.57567 166.415 7.28631C166.738 7.98403 166.9 8.81096 166.9 9.76709V10.3873H159.535V9.26318H165.563L165.233 9.51514C165.233 8.54608 165.013 7.79668 164.574 7.26693C164.148 6.72426 163.528 6.45292 162.714 6.45292C161.809 6.45292 161.111 6.76948 160.62 7.4026C160.129 8.02279 159.884 8.88202 159.884 9.98029V10.1741C159.884 11.324 160.162 12.1897 160.717 12.7712C161.286 13.3526 162.087 13.6433 163.121 13.6433C163.689 13.6433 164.219 13.5658 164.71 13.4107C165.214 13.2428 165.692 12.9714 166.144 12.5967L166.784 13.934C166.331 14.3346 165.782 14.6447 165.136 14.8643C164.49 15.0711 163.805 15.1744 163.082 15.1744ZM172.887 15.1744C172.021 15.1744 171.265 14.9742 170.619 14.5736C169.973 14.1731 169.469 13.5916 169.107 12.8293C168.758 12.067 168.584 11.1625 168.584 10.116C168.584 9.05645 168.758 8.152 169.107 7.4026C169.469 6.65319 169.973 6.07822 170.619 5.67767C171.265 5.26421 172.021 5.05748 172.887 5.05748C173.739 5.05748 174.482 5.27067 175.116 5.69706C175.749 6.12344 176.169 6.70488 176.375 7.44136H176.162L176.356 5.23191H178.255C178.216 5.63245 178.178 6.033 178.139 6.43354C178.113 6.82116 178.1 7.20232 178.1 7.57703V15H176.143V12.8293H176.356C176.149 13.5529 175.723 14.1278 175.077 14.5542C174.444 14.9677 173.714 15.1744 172.887 15.1744ZM173.371 13.6433C174.211 13.6433 174.883 13.3461 175.387 12.7518C175.904 12.1574 176.162 11.2788 176.162 10.116C176.162 8.95309 175.904 8.08094 175.387 7.4995C174.883 6.90515 174.211 6.60797 173.371 6.60797C172.518 6.60797 171.834 6.90515 171.317 7.4995C170.813 8.08094 170.561 8.95309 170.561 10.116C170.561 11.2788 170.813 12.1574 171.317 12.7518C171.821 13.3461 172.506 13.6433 173.371 13.6433ZM184.755 15.1744C183.696 15.1744 182.895 14.8902 182.352 14.3217C181.809 13.7402 181.538 12.8745 181.538 11.7246V6.74364H179.639V5.23191H181.538V2.65422L183.495 2.13093V5.23191H186.209V6.74364H183.495V11.5502C183.495 12.2737 183.625 12.7906 183.883 13.1006C184.141 13.4107 184.516 13.5658 185.007 13.5658C185.253 13.5658 185.466 13.5464 185.647 13.5077C185.841 13.456 186.015 13.3978 186.17 13.3332V14.9225C185.976 15 185.75 15.0581 185.492 15.0969C185.233 15.1486 184.988 15.1744 184.755 15.1744ZM193.339 15V1.3363H202.293V2.94494H195.296V7.24755H201.847V8.87556H195.296V13.372H202.293V15H193.339ZM203.22 15L207.658 9.49576V10.4261L203.452 5.23191H205.797L208.763 9.04999H208.065L211.03 5.23191H213.356L209.189 10.4067V9.51514L213.608 15H211.263L208.065 10.9106H208.763L205.545 15H203.22ZM215.101 19.1863V7.57703C215.101 7.20232 215.081 6.82116 215.042 6.43354C215.017 6.033 214.984 5.63245 214.946 5.23191H216.845L217.039 7.44136H216.826C217.032 6.70488 217.446 6.12344 218.066 5.69706C218.699 5.27067 219.448 5.05748 220.314 5.05748C221.18 5.05748 221.936 5.26421 222.582 5.67767C223.228 6.07822 223.725 6.65319 224.074 7.4026C224.436 8.152 224.617 9.05645 224.617 10.116C224.617 11.1625 224.436 12.067 224.074 12.8293C223.725 13.5916 223.228 14.1731 222.582 14.5736C221.936 14.9742 221.18 15.1744 220.314 15.1744C219.461 15.1744 218.718 14.9677 218.085 14.5542C217.465 14.1278 217.052 13.5529 216.845 12.8293H217.058V19.1863H215.101ZM219.83 13.6433C220.682 13.6433 221.361 13.3461 221.865 12.7518C222.381 12.1574 222.64 11.2788 222.64 10.116C222.64 8.95309 222.381 8.08094 221.865 7.4995C221.361 6.90515 220.682 6.60797 219.83 6.60797C218.977 6.60797 218.292 6.90515 217.775 7.4995C217.271 8.08094 217.019 8.95309 217.019 10.116C217.019 11.2788 217.271 12.1574 217.775 12.7518C218.292 13.3461 218.977 13.6433 219.83 13.6433ZM226.911 15V0.735486H228.868V15H226.911ZM235.924 15.1744C234.955 15.1744 234.115 14.9742 233.404 14.5736C232.693 14.1602 232.144 13.5787 231.757 12.8293C231.369 12.067 231.175 11.1625 231.175 10.116C231.175 9.06937 231.369 8.17138 231.757 7.42198C232.144 6.65965 232.693 6.07822 233.404 5.67767C234.115 5.26421 234.955 5.05748 235.924 5.05748C236.893 5.05748 237.733 5.26421 238.443 5.67767C239.167 6.07822 239.722 6.65965 240.11 7.42198C240.51 8.17138 240.711 9.06937 240.711 10.116C240.711 11.1625 240.51 12.067 240.11 12.8293C239.722 13.5787 239.167 14.1602 238.443 14.5736C237.733 14.9742 236.893 15.1744 235.924 15.1744ZM235.924 13.6433C236.776 13.6433 237.455 13.3461 237.959 12.7518C238.463 12.1574 238.715 11.2788 238.715 10.116C238.715 8.95309 238.463 8.08094 237.959 7.4995C237.455 6.90515 236.776 6.60797 235.924 6.60797C235.084 6.60797 234.412 6.90515 233.908 7.4995C233.404 8.08094 233.152 8.95309 233.152 10.116C233.152 11.2788 233.398 12.1574 233.889 12.7518C234.393 13.3461 235.071 13.6433 235.924 13.6433ZM242.96 15V7.65455C242.96 7.25401 242.947 6.85346 242.921 6.45292C242.908 6.03946 242.882 5.63245 242.844 5.23191H244.743L244.956 7.75146H244.646C244.775 7.14418 244.995 6.64027 245.305 6.23973C245.615 5.83918 245.99 5.54201 246.429 5.3482C246.881 5.15438 247.353 5.05748 247.844 5.05748C248.051 5.05748 248.225 5.0704 248.367 5.09624C248.509 5.10916 248.652 5.135 248.794 5.17377L248.774 6.91807C248.555 6.82762 248.361 6.77594 248.193 6.76302C248.038 6.73718 247.844 6.72426 247.611 6.72426C247.043 6.72426 246.558 6.85346 246.158 7.11188C245.757 7.35737 245.454 7.69331 245.247 8.1197C245.04 8.54608 244.937 9.00477 244.937 9.49576V15H242.96ZM254.688 15.1744C253.112 15.1744 251.871 14.7287 250.967 13.8371C250.062 12.9456 249.61 11.7117 249.61 10.1353C249.61 9.1146 249.804 8.22306 250.192 7.46074C250.592 6.69841 251.141 6.11052 251.839 5.69706C252.55 5.27067 253.37 5.05748 254.3 5.05748C255.218 5.05748 255.986 5.25129 256.607 5.63891C257.227 6.02654 257.698 6.57567 258.021 7.28631C258.344 7.98403 258.506 8.81096 258.506 9.76709V10.3873H251.141V9.26318H257.169L256.839 9.51514C256.839 8.54608 256.62 7.79668 256.18 7.26693C255.754 6.72426 255.134 6.45292 254.32 6.45292C253.415 6.45292 252.718 6.76948 252.227 7.4026C251.736 8.02279 251.49 8.88202 251.49 9.98029V10.1741C251.49 11.324 251.768 12.1897 252.323 12.7712C252.892 13.3526 253.693 13.6433 254.727 13.6433C255.295 13.6433 255.825 13.5658 256.316 13.4107C256.82 13.2428 257.298 12.9714 257.75 12.5967L258.39 13.934C257.937 14.3346 257.388 14.6447 256.742 14.8643C256.096 15.0711 255.411 15.1744 254.688 15.1744ZM260.713 15V7.65455C260.713 7.25401 260.701 6.85346 260.675 6.45292C260.662 6.03946 260.636 5.63245 260.597 5.23191H262.496L262.71 7.75146H262.4C262.529 7.14418 262.748 6.64027 263.059 6.23973C263.369 5.83918 263.743 5.54201 264.183 5.3482C264.635 5.15438 265.106 5.05748 265.597 5.05748C265.804 5.05748 265.979 5.0704 266.121 5.09624C266.263 5.10916 266.405 5.135 266.547 5.17377L266.528 6.91807C266.308 6.82762 266.114 6.77594 265.946 6.76302C265.791 6.73718 265.597 6.72426 265.365 6.72426C264.796 6.72426 264.312 6.85346 263.911 7.11188C263.511 7.35737 263.207 7.69331 263 8.1197C262.794 8.54608 262.69 9.00477 262.69 9.49576V15H260.713Z" fill="white"/>
</svg>
